<?xml version="1.0" encoding="UTF-8"?>
<svg width="19px" height="19px" viewBox="0 0 19 19" version="1.1" xmlns="http://www.w3.org/2000/svg" xmlns:xlink="http://www.w3.org/1999/xlink">
    <!-- Generator: Sketch 51.1 (57501) - http://www.bohemiancoding.com/sketch -->
    <title>Callnow_HCP</title>
    <desc>Created with Sketch.</desc>
    <defs></defs>
    <g id="Page-1" stroke="none" stroke-width="1" fill="none" fill-rule="evenodd">
        <g id="Callnow_HCP" fill="#FFFFFF" fill-rule="nonzero">
            <path d="M14.0625,9.375 L18.75,4.6875 L14.0625,0 L14.0625,2.8125 L10.3125,2.8125 L10.3125,6.5625 L14.0625,6.5625 L14.0625,9.375 Z M15.9375,13.59375 C14.8125,13.59375 13.6875,13.40625 12.5625,13.03125 C12.28125,12.9375 11.90625,13.03125 11.625,13.21875 L9.5625,15.28125 C6.9375,13.96875 4.78125,11.71875 3.375,9.09375 L5.4375,7.03125 C5.71875,6.75 5.8125,6.375 5.625,6.09375 C5.34375,5.0625 5.15625,3.9375 5.15625,2.8125 C5.15625,2.25 4.78125,1.875 4.21875,1.875 L0.9375,1.875 C0.375,1.875 0,2.25 0,2.8125 C0,11.625 7.125,18.75 15.9375,18.75 C16.5,18.75 16.875,18.375 16.875,17.8125 L16.875,14.53125 C16.875,13.96875 16.5,13.59375 15.9375,13.59375 Z" id="Shape"></path>
        </g>
    </g>
</svg>