<?xml version="1.0" encoding="UTF-8"?>
<svg width="30px" height="30px" viewBox="0 0 30 30" version="1.1" xmlns="http://www.w3.org/2000/svg" xmlns:xlink="http://www.w3.org/1999/xlink">
    <!-- Generator: Sketch 51.1 (57501) - http://www.bohemiancoding.com/sketch -->
    <title>target</title>
    <desc>Created with Sketch.</desc>
    <defs></defs>
    <g id="Page-1" stroke="none" stroke-width="1" fill="none" fill-rule="evenodd">
        <g id="target_HCP" transform="translate(-40.000000, -665.000000)" fill="#01587B" fill-rule="nonzero">
            <g id="target" transform="translate(40.000000, 665.000000)">
                <path d="M14.3880266,26.4596136 L14.3880266,29.4285714 L15.0405448,29.4285714 L15.0405448,26.4596136 C21.2749608,26.2887123 26.2887123,21.2749608 26.4596136,15.0405448 L29.4285714,15.0405448 L29.4285714,14.3880266 L26.4596136,14.3880266 C26.2887123,8.15361064 21.2749608,3.13985914 15.0405448,2.96895786 L15.0405448,-4.4408921e-16 L14.3880266,-4.4408921e-16 L14.3880266,2.96895786 C8.15361064,3.13985914 3.13985914,8.15361064 2.96895786,14.3880266 L4.4408921e-16,14.3880266 L4.4408921e-16,15.0405448 L2.96895786,15.0405448 C3.13985914,21.2749608 8.15361064,26.2887123 14.3880266,26.4596136 Z M3.62147607,15.0405448 L9.62464364,15.0405448 C9.78421121,17.6022852 11.8262862,19.6443602 14.3880266,19.8039278 L14.3880266,25.8070954 C8.51384257,25.6367228 3.79184864,20.9147289 3.62147607,15.0405448 Z M14.7142857,10.2771619 C17.1648416,10.2771619 19.1514096,12.2637299 19.1514096,14.7142857 C19.1514096,17.1648416 17.1648416,19.1514096 14.7142857,19.1514096 C12.2637299,19.1514096 10.2771619,17.1648416 10.2771619,14.7142857 C10.2771619,12.2637299 12.2637299,10.2771619 14.7142857,10.2771619 Z M15.0405448,25.8070954 L15.0405448,19.8039278 C17.6022852,19.6443602 19.6443602,17.6022852 19.8039278,15.0405448 L25.8070954,15.0405448 C25.6367228,20.9147289 20.9147289,25.6367228 15.0405448,25.8070954 Z M25.8070954,14.3880266 L19.8039278,14.3880266 C19.6443602,11.8262862 17.6022852,9.78421121 15.0405448,9.62464364 L15.0405448,3.62147607 C20.9147289,3.79184864 25.6367228,8.51384257 25.8070954,14.3880266 Z M14.3880266,3.62147607 L14.3880266,9.62464364 C11.8262862,9.78421121 9.78421121,11.8262862 9.62464364,14.3880266 L3.62147607,14.3880266 C3.79184864,8.51384257 8.51384257,3.79184864 14.3880266,3.62147607 Z" id="Shape"></path>
            </g>
        </g>
    </g>
</svg>