<?xml version="1.0" encoding="UTF-8"?>
<svg width="12px" height="20px" viewBox="0 0 12 20" version="1.1" xmlns="http://www.w3.org/2000/svg" xmlns:xlink="http://www.w3.org/1999/xlink">
    <!-- Generator: Sketch 51.1 (57501) - http://www.bohemiancoding.com/sketch -->
    <title>directionswalk</title>
    <desc>Created with Sketch.</desc>
    <defs></defs>
    <g id="Page-1" stroke="none" stroke-width="1" fill="none" fill-rule="evenodd">
        <g id="directionswalk" fill="#FFFFFF" fill-rule="nonzero">
            <path d="M7.33731307,3.38473165 C8.22754033,3.38473165 8.9397222,2.67047091 8.9397222,1.77764496 C8.9397222,0.88481902 8.22754033,0.170558261 7.33731307,0.170558261 C6.44708579,0.170558261 5.73490396,0.88481902 5.73490396,1.77764496 C5.73490396,2.67047091 6.44708579,3.38473165 7.33731307,3.38473165 Z M7.4263358,8.92025253 L11.7884495,8.92025253 L11.7884495,7.3131658 L8.58363127,7.3131658 L6.80317667,4.3668402 C6.53610848,3.92042723 6.00197213,3.56329685 5.46783575,3.56329685 C5.28979031,3.56329685 5.20076757,3.56329685 5.02272213,3.65257944 L0.215494783,5.17038356 L0.215494783,9.81307847 L1.81790389,9.81307847 L1.81790389,6.50962248 L3.68738119,5.88464431 L0.215494783,19.6341639 L1.81790389,19.6341639 L4.39956301,12.4022737 L6.44708579,15.1700341 L6.44708579,19.6341639 L8.04949487,19.6341639 L8.04949487,13.9200777 L5.82392665,9.90236107 L6.44708579,7.3131658 L7.4263358,8.92025253 Z" id="Shape"></path>
        </g>
    </g>
</svg>