<?xml version="1.0" encoding="UTF-8"?>
<svg width="25px" height="29px" viewBox="0 0 25 29" version="1.1" xmlns="http://www.w3.org/2000/svg" xmlns:xlink="http://www.w3.org/1999/xlink">
    <!-- Generator: Sketch 51.1 (57501) - http://www.bohemiancoding.com/sketch -->
    <title>GEO_HCP_ON</title>
    <desc>Created with Sketch.</desc>
    <defs>
        <linearGradient x1="-43.5875277%" y1="50.000006%" x2="87.6521018%" y2="50%" id="linearGradient-1">
            <stop stop-color="#33A3B9" offset="0%"></stop>
            <stop stop-color="#31AFBB" offset="35.8270662%"></stop>
            <stop stop-color="#3B79B0" offset="100%"></stop>
        </linearGradient>
    </defs>
    <g id="Page-1" stroke="none" stroke-width="1" fill="none" fill-rule="evenodd">
        <g id="GEO_HCP_ON" fill-rule="nonzero">
            <path d="M4.43216407,6.92070521 C6.69549386,3.93591306 10.3004413,2.00501253 14.3610015,2.00501253 C20.1341674,2.00501253 24.9863499,5.90817053 26.3711843,11.1939771 C26.6299735,12.1817546 26.7676768,13.2178165 26.7676768,14.2857143 C26.7676768,21.0681589 21.2130193,26.566416 14.3610015,26.566416 C10.3250836,26.566416 6.73926513,24.6588804 4.47351821,21.7049478 C2.89257154,19.6438131 -1.76767677,14.2857143 -1.76767677,14.2857143 C-1.76767677,14.2857143 2.87622326,8.97261992 4.43216407,6.92070521 Z" id="cancel" fill="url(#linearGradient-1)" transform="translate(12.500000, 14.285714) scale(-1, 1) rotate(-90.000000) translate(-12.500000, -14.285714) "></path>
            <path d="M11.0600477,6.10838845 L11.118445,11.0348477 L6.15466412,10.9768894 C5.98391109,10.9748958 5.84705785,11.1056868 5.84906795,11.2752591 L5.87110124,13.1340341 C5.87307823,13.3008128 6.01216927,13.4376191 6.18385684,13.4396237 L11.1476381,13.4975823 L11.2060354,18.4240415 C11.2080442,18.5935107 11.3430832,18.7324506 11.5139401,18.7344456 L13.386797,18.7563136 C13.5548393,18.7582757 13.6894468,18.6234118 13.6874267,18.4530147 L13.6290294,13.5265555 L18.5928103,13.5845138 C18.7635637,13.5865078 18.9004169,13.4557167 18.8984068,13.2861444 L18.8763732,11.4273691 C18.8743934,11.2605876 18.7353036,11.1237842 18.5636176,11.1217795 L13.5998367,11.0638213 L13.541439,6.13736168 C13.5394303,5.96789248 13.4043913,5.82895258 13.2335343,5.82695762 L11.3606778,5.80509 C11.1926355,5.80312784 11.0580279,5.93799175 11.0600477,6.10838845 Z" id="cancel-path" fill="#FFFFFF"></path>
        </g>
    </g>
</svg>