<?xml version="1.0" encoding="UTF-8"?>
<svg width="35px" height="44px" viewBox="0 0 99 124" version="1.1" xmlns="http://www.w3.org/2000/svg" xmlns:xlink="http://www.w3.org/1999/xlink">
    <!-- Generator: Sketch 61 (89581) - https://sketch.com -->
    <title>GEO_Division_active NON member</title>
    <desc>Created with Sketch.</desc>
    <defs>
        <linearGradient x1="-96.9026549%" y1="50%" x2="100%" y2="49.386302%" id="linearGradient-1">
            <stop stop-color="#FFFEFF" offset="0%"></stop>
            <stop stop-color="#F7BA06" offset="54.3117172%"></stop>
            <stop stop-color="#20AC83" offset="100%"></stop>
        </linearGradient>
    </defs>
    <g id="GEO_Division_active-NON-member" stroke="none" stroke-width="1" fill="none" fill-rule="evenodd">
        <ellipse id="Oval-2" fill="#30AD79" fill-rule="nonzero" cx="49.5" cy="114" rx="39.5" ry="8"></ellipse>
        <g id="GEO_active">
            <path d="M17.5513697,27.6136138 C26.5141557,15.7042931 40.7897476,8 56.8695658,8 C79.731303,8 98.9459458,23.5736004 104.42989,44.6639687 C105.454695,48.6052008 106,52.739088 106,57 C106,84.061954 84.0035564,106 56.8695658,106 C40.8873309,106 26.6874899,98.3889329 17.7151321,86.6027418 C11.4545833,78.3788143 -7,57 -7,57 C-7,57 11.3898441,35.8007535 17.5513697,27.6136138 Z" id="cancel" fill="url(#linearGradient-1)" transform="translate(49.500000, 57.000000) scale(-1, 1) rotate(270.000000) translate(-49.500000, -57.000000) "></path>
            <path d="M27.9071877,35.2642253 L41.9700041,49 L27.9071877,62.7357747 C27.4234299,63.2082828 27.4092295,63.9604995 27.8932819,64.4332948 L33.1992442,69.6158645 C33.6753223,70.0808708 34.4507764,70.0773754 34.9371817,69.6022812 L49.0000001,55.8665065 L63.0628165,69.6022812 C63.5465743,70.0747893 64.3167017,70.0886597 64.8007541,69.6158645 L70.1067184,64.4332948 C70.5827965,63.9682885 70.5792179,63.2108689 70.0928106,62.7357747 L56.0299942,49 L70.0928106,35.2642253 C70.5765703,34.7917172 70.5907707,34.0395005 70.1067184,33.5667052 L64.8007541,28.3841355 C64.3246602,27.9191292 63.549218,27.9226295 63.0628165,28.3977188 L49.0000001,42.1334935 L34.9371817,28.3977188 C34.453424,27.9252107 33.6832966,27.9113403 33.1992442,28.3841355 L27.8932819,33.5667052 C27.4172037,34.0317115 27.4207823,34.7891311 27.9071877,35.2642253 L27.9071877,35.2642253 Z" id="cancel-path" fill="#FFFFFF" transform="translate(49.000000, 49.000000) rotate(-315.000000) translate(-49.000000, -49.000000) "></path>
        </g>
    </g>
</svg>
