<?xml version="1.0" encoding="UTF-8"?>
<svg width="25px" height="29px" viewBox="0 0 37 43" version="1.1" xmlns="http://www.w3.org/2000/svg" xmlns:xlink="http://www.w3.org/1999/xlink">
    <!-- Generator: Sketch 61 (89581) - https://sketch.com -->
    <title>GEO_green_offNON member</title>
    <desc>Created with Sketch.</desc>
    <defs>
        <linearGradient x1="-118.605916%" y1="50%" x2="100%" y2="50%" id="linearGradient-1">
            <stop stop-color="#FFFEFF" offset="0%"></stop>
            <stop stop-color="#F7BA06" offset="60.434504%"></stop>
            <stop stop-color="#20AC83" offset="100%"></stop>
        </linearGradient>
    </defs>
    <g id="GEO_green_offNON-member" stroke="none" stroke-width="1" fill="none" fill-rule="evenodd">
        <g id="GEO_green_off">
            <path d="M6.63343796,10.6574328 C9.91924204,6.34232943 15.1527485,3.55083338 21.0476938,3.55083338 C29.4289259,3.55083338 36.4731141,9.19361505 38.4835568,16.8352869 C38.8592556,18.2633133 39.0591672,19.7611443 39.0591672,21.3050003 C39.0591672,31.1103564 30.9951562,39.0591672 21.0476938,39.0591672 C15.1885231,39.0591672 9.98278726,36.3014498 6.69347408,32.0309599 C4.39832426,29.0511847 -2.36722226,21.3050003 -2.36722226,21.3050003 C-2.36722226,21.3050003 4.37459051,13.6238786 6.63343796,10.6574328 Z" id="cancel" fill="url(#linearGradient-1)" transform="translate(18.345972, 21.305000) scale(-1, 1) rotate(270.000000) translate(-18.345972, -21.305000) "></path>
            <path d="M10.2644607,14.3812753 L15.2579325,19.5295836 L10.2644607,24.677892 C10.0926864,24.8549928 10.087644,25.1369313 10.259523,25.3141398 L12.1435818,27.2566197 C12.3126292,27.4309088 12.58798,27.4295987 12.7606945,27.2515286 L17.754167,22.1032202 L22.7476388,27.2515286 C22.9194131,27.4286294 23.1928725,27.4338282 23.3647514,27.2566197 L25.2488109,25.3141398 C25.4178584,25.1398507 25.4165877,24.8559621 25.2438725,24.677892 L20.2504007,19.5295836 L25.2438725,14.3812753 C25.4156475,14.2041744 25.4206899,13.9222359 25.2488109,13.7450275 L23.3647514,11.8025475 C23.1956984,11.6282584 22.9203518,11.6295703 22.7476388,11.8076387 L17.754167,16.955947 L12.7606945,11.8076387 C12.5889201,11.6305378 12.3154607,11.625339 12.1435818,11.8025475 L10.259523,13.7450275 C10.0904756,13.9193165 10.0917463,14.2032051 10.2644607,14.3812753 L10.2644607,14.3812753 Z" id="cancel-path" fill="#FFFFFF" transform="translate(17.754167, 19.529583) rotate(-315.000000) translate(-17.754167, -19.529583) "></path>
        </g>
    </g>
</svg>
