<?xml version="1.0" encoding="UTF-8"?>
<svg width="35px" height="44px" viewBox="0 0 35 44" version="1.1" xmlns="http://www.w3.org/2000/svg" xmlns:xlink="http://www.w3.org/1999/xlink">
    <!-- Generator: Sketch 51.1 (57501) - http://www.bohemiancoding.com/sketch -->
    <title>GEO_Division_active_arancione</title>
    <desc>Created with Sketch.</desc>
    <defs>
        <linearGradient x1="100%" y1="55.6461256%" x2="2.98499723%" y2="50%" id="linearGradient-1">
            <stop stop-color="#FF7D00" offset="0%"></stop>
            <stop stop-color="#F59128" offset="100%"></stop>
        </linearGradient>
    </defs>
    <g id="Page-1" stroke="none" stroke-width="1" fill="none" fill-rule="evenodd">
        <g id="GEO_Division_active_arancione" fill-rule="nonzero">
            <ellipse id="Oval-2" fill="#BB5F08" cx="17.5" cy="40.3030303" rx="13.9646465" ry="2.82828283"></ellipse>
            <g id="GEO_active">
                <path d="M6.20502969,9.76238872 C9.37369141,5.55202281 14.4206178,2.82828283 20.1054021,2.82828283 C28.1878344,2.82828283 34.9808899,8.33410115 36.9196581,15.790292 C37.2819629,17.1836568 37.4747475,18.6451321 37.4747475,20.1515152 C37.4747475,29.7188726 29.698227,37.4747475 20.1054021,37.4747475 C14.455117,37.4747475 9.43497118,34.7839662 6.26292549,30.6171309 C4.04960016,27.7096818 -2.47474747,20.1515152 -2.47474747,20.1515152 C-2.47474747,20.1515152 4.02671256,12.656832 6.20502969,9.76238872 Z" id="cancel" fill="url(#linearGradient-1)" transform="translate(17.500000, 20.151515) scale(-1, 1) rotate(-90.000000) translate(-17.500000, -20.151515) "></path>
                <path d="M15.4840667,8.61652976 L15.565823,15.565823 L8.61652976,15.4840667 C8.37747552,15.4812545 8.18588099,15.6657491 8.18869514,15.9049489 L8.21954173,18.5269481 C8.22230953,18.7622072 8.41703697,18.955187 8.65739958,18.9580147 L15.6066933,19.0397714 L15.6884496,25.9890646 C15.6912618,26.2281189 15.8803164,26.4241084 16.1195161,26.4269225 L18.7415159,26.4577696 C18.976775,26.4605374 19.1652256,26.2702976 19.1623974,26.0299344 L19.0806412,19.0806412 L26.0299344,19.1623974 C26.2689892,19.1652102 26.4605837,18.9807156 26.4577696,18.7415159 L26.4269225,16.1195161 C26.4241507,15.8842531 26.2294251,15.6912774 25.9890646,15.6884496 L19.0397714,15.6066933 L18.9580147,8.65739958 C18.9552024,8.4183453 18.7661478,8.22235584 18.5269481,8.21954173 L15.9049489,8.18869514 C15.6696897,8.18592731 15.4812391,8.37616716 15.4840667,8.61652976 Z" id="cancel-path" fill="#FFFFFF"></path>
            </g>
        </g>
    </g>
</svg>