<?xml version="1.0" encoding="UTF-8"?>
<svg width="25px" height="29px" viewBox="0 0 25 29" version="1.1" xmlns="http://www.w3.org/2000/svg" xmlns:xlink="http://www.w3.org/1999/xlink">
    <!-- Generator: Sketch 51.1 (57501) - http://www.bohemiancoding.com/sketch -->
    <title>GEO_association_ON</title>
    <desc>Created with Sketch.</desc>
    <defs>
        <linearGradient x1="100%" y1="55.6461256%" x2="2.98499723%" y2="50%" id="linearGradient-1">
            <stop stop-color="#FF7D00" offset="0%"></stop>
            <stop stop-color="#F59128" offset="100%"></stop>
        </linearGradient>
    </defs>
    <g id="Page-1" stroke="none" stroke-width="1" fill="none" fill-rule="evenodd">
        <g id="GEO_association_ON" fill-rule="nonzero">
            <path d="M4.43216407,6.9731348 C6.69549386,3.96573058 10.3004413,2.02020202 14.3610015,2.02020202 C20.1341674,2.02020202 24.9863499,5.95292939 26.3711843,11.27878 C26.6299735,12.2740406 26.7676768,13.3179515 26.7676768,14.3939394 C26.7676768,21.2277662 21.2130193,26.7676768 14.3610015,26.7676768 C10.3250836,26.7676768 6.73926513,24.8456901 4.47351821,21.8693792 C2.89257154,19.7926299 -1.76767677,14.3939394 -1.76767677,14.3939394 C-1.76767677,14.3939394 2.87622326,9.04059432 4.43216407,6.9731348 Z" id="cancel" fill="url(#linearGradient-1)" transform="translate(12.500000, 14.393939) scale(-1, 1) rotate(-90.000000) translate(-12.500000, -14.393939) "></path>
            <path d="M11.0600477,6.15466412 L11.118445,11.118445 L6.15466412,11.0600477 C5.98391109,11.0580389 5.84705785,11.1898208 5.84906795,11.3606778 L5.87110124,13.2335343 C5.87307823,13.4015766 6.01216927,13.5394193 6.18385684,13.541439 L11.1476381,13.5998367 L11.2060354,18.5636176 C11.2080442,18.7343706 11.3430832,18.8743631 11.5139401,18.8763732 L13.386797,18.8984068 C13.5548393,18.9003839 13.6894468,18.7644983 13.6874267,18.5928103 L13.6290294,13.6290294 L18.5928103,13.6874267 C18.7635637,13.6894359 18.9004169,13.557654 18.8984068,13.386797 L18.8763732,11.5139401 C18.8743934,11.3458951 18.7353036,11.2080553 18.5636176,11.2060354 L13.5998367,11.1476381 L13.541439,6.18385684 C13.5394303,6.01310379 13.4043913,5.87311131 13.2335343,5.87110124 L11.3606778,5.84906795 C11.1926355,5.84709093 11.0580279,5.98297654 11.0600477,6.15466412 Z" id="cancel-path" fill="#FFFFFF"></path>
        </g>
    </g>
</svg>